<?xml version="1.0" standalone="no"?>
<!DOCTYPE svg PUBLIC "-//W3C//DTD SVG 20010904//EN"
 "http://www.w3.org/TR/2001/REC-SVG-20010904/DTD/svg10.dtd">
<svg version="1.0" xmlns="http://www.w3.org/2000/svg"
 width="700.000000pt" height="700.000000pt" viewBox="0 0 700.000000 700.000000"
 preserveAspectRatio="xMidYMid meet">
<metadata>
Created by potrace 1.11, written by Peter Selinger 2001-2013
</metadata>
<g transform="translate(0.000000,700.000000) scale(0.100000,-0.100000)"
fill="#000000" stroke="none">
<path d="M2150 4845 l-1565 -1565 50 0 c28 -1 633 -2 1345 -3 l1295 -2 2 -222
1 -223 -687 0 -687 0 -225 -225 -225 -225 908 0 908 0 1 -30 c0 -16 0 -104 0
-195 0 -91 0 -178 0 -195 l-1 -30 -235 0 -236 0 -219 -219 c-121 -121 -220
-222 -220 -224 0 -3 203 -5 451 -5 247 0 453 -2 455 -5 3 -3 5 -204 5 -446 0
-243 2 -441 4 -441 2 0 103 99 224 221 205 205 221 224 222 258 0 20 0 120 0
223 l-1 188 48 1 c26 0 127 0 224 0 l177 0 220 220 c122 121 221 222 221 224
0 3 -200 5 -445 5 l-444 0 0 225 1 225 674 0 673 0 220 221 c122 122 221 223
221 225 0 2 -402 4 -894 4 l-895 0 0 224 1 224 1046 1 c576 0 1081 0 1124 1
l76 0 209 208 c114 115 214 216 221 224 12 15 -101 16 -1330 16 l-1343 0 -2
1337 c-1 735 -3 1338 -5 1340 -2 2 -708 -700 -1568 -1560z m1128 -319 l0 -804
-805 0 -805 0 804 804 c441 442 804 804 805 804 0 0 1 -362 1 -804z"/>
</g>
</svg>
